<?xml version="1.0" encoding="UTF-8"?>
<svg version="1.1" viewBox="0 0 2048 1352" width="660" height="436" xmlns="http://www.w3.org/2000/svg">
<path transform="translate(0)" d="m0 0h2048v1352h-2048z" fill="#39C686"/>
<path transform="translate(938,260)" d="m0 0h42l3 4 13 35 15 38 11 29 11 28 34 88 10 25 14 37 15 39 16 41 19 48 16 41 14 37 15 38 13 34 16 42 6 16 2 8h2l2-9 12-30 20-53 13-32 12-32 11-27 14-37 16-41 10-26 17-43 19-50 15-38 12-31 17-43 7-19 12-30 11-28 11-29 11-27 2-2 164-1 5 1-1 5-11 28-13 30-12 30-19 46-13 31-12 29-5 13-5 11-10 24-12 30-15 35-17 42-18 43-31 74-14 34-11 26-15 37-10 24-17 41-18 43-16 39-14 34-11 26-13 31-2 2-15 1h-136l-10-2-6-4-10-19-12-27-26-58-11-24-8-19-1-1h-421l-8 18-9 20-7 15-15 33-9 20-18 39-2 5-2 1h-163l-1-3 15-32 18-41 15-32 15-34 16-35 18-41 13-29 10-23 15-32 16-36 18-40 11-25 15-33 16-36 18-40 39-87 15-33 13-29 15-33 12-27 17-38 16-36 5-10 1-1z" fill="#fff"/>
<path transform="translate(857,428)" d="m0 0 2 1 5 15 13 29 11 25 19 44 17 39 15 35 9 20 9 21 14 32 17 39 15 35 4 10-1 1h-276l-21-1 1-4 12-28 13-30 16-36 16-37 15-35 9-20 26-60 16-36 13-30 10-23z" fill="#39C686"/>
<path transform="translate(0)" d="m0 0h17l-2 4-7 8-3 5-1 6v1299l3 10 4 6 7 6 8 4 14 1h1948l38-1 10-4 10-9h2v17h-2048z" fill="#fff"/>
<path transform="translate(2037)" d="m0 0h11v10l-4-1-7-7z" fill="#fff"/>
</svg>
